HIERARCHY
ROOT Character1_Hips
{
  OFFSET -27.7497 87.9147 5.08735
  CHANNELS 6 Xposition Yposition Zposition Zrotation Xrotation Yrotation
  JOINT Character1_Spine
  {
    OFFSET 0 8.754 -1.339
    CHANNELS 3 Zrotation Xrotation Yrotation
    JOINT Character1_Spine1
    {
      OFFSET 0 10.855 -0.645
      CHANNELS 3 Zrotation Xrotation Yrotation
      JOINT Character1_LeftShoulder
      {
        OFFSET 1.467 27.745 1.178
        CHANNELS 3 Zrotation Xrotation Yrotation
        JOINT Character1_LeftArm
        {
          OFFSET 18.486 -1.858 0.275
          CHANNELS 3 Zrotation Xrotation Yrotation
          JOINT Character1_LeftForeArm
          {
            OFFSET 31.798 2.36 2.921
            CHANNELS 3 Zrotation Xrotation Yrotation
            JOINT Character1_LeftHand
            {
              OFFSET 29.001 1.642 2.112
              CHANNELS 3 Zrotation Xrotation Yrotation
              End Site
              {
                OFFSET 0.269758 0.141128 0.89614
              }
            }
            JOINT L_Radius_RIGMESH
            {
              OFFSET 0.592911 0.209926 -0.435177
              CHANNELS 3 Zrotation Xrotation Yrotation
              End Site
              {
                OFFSET 0 0 0
              }
            }
          }
          JOINT L_Humerus_RIGMESH
          {
            OFFSET 0.000383861 -0.000257932 -6.47351e-005
            CHANNELS 3 Zrotation Xrotation Yrotation
            End Site
            {
              OFFSET 0 0 0
            }
          }
        }
        JOINT L_Shoulder_RIGMESH
        {
          OFFSET 3.24498e-005 -0.000608592 -0.000527677
          CHANNELS 3 Zrotation Xrotation Yrotation
          End Site
          {
            OFFSET 0 0 0
          }
        }
      }
      JOINT Character1_RightShoulder
      {
        OFFSET -1.467 27.745 1.178
        CHANNELS 3 Zrotation Xrotation Yrotation
        JOINT Character1_RightArm
        {
          OFFSET -18.486 -1.858 0.275
          CHANNELS 3 Zrotation Xrotation Yrotation
          JOINT Character1_RightForeArm
          {
            OFFSET -31.798 2.35964 2.92082
            CHANNELS 3 Zrotation Xrotation Yrotation
            JOINT Character1_RightHand
            {
              OFFSET -29.0007 1.64167 2.112
              CHANNELS 3 Zrotation Xrotation Yrotation
              End Site
              {
                OFFSET 161.773 0.141827 0.896322
              }
            }
            JOINT R_Radius_RIGMESH
            {
              OFFSET 104.095 0.21029 -0.434995
              CHANNELS 3 Zrotation Xrotation Yrotation
              End Site
              {
                OFFSET 0 0 0
              }
            }
          }
          JOINT R_Humerus_RIGMESH
          {
            OFFSET 39.9064 -0.000257932 -6.47351e-005
            CHANNELS 3 Zrotation Xrotation Yrotation
            End Site
            {
              OFFSET 0 0 0
            }
          }
        }
        JOINT R_Shoulder_RIGMESH
        {
          OFFSET -3.24498e-005 -0.000608592 -0.000527677
          CHANNELS 3 Zrotation Xrotation Yrotation
          End Site
          {
            OFFSET 0 0 0
          }
        }
      }
      JOINT Character1_Neck
      {
        OFFSET 0 30.836 0.626
        CHANNELS 3 Zrotation Xrotation Yrotation
        JOINT Character1_Head
        {
          OFFSET 0 8.074 3.498
          CHANNELS 3 Zrotation Xrotation Yrotation
          End Site
          {
            OFFSET 0 -0.00153379 1.54668e-005
          }
        }
        JOINT Neck_RIGMESH
        {
          OFFSET -1.80997 0.332606 -0.355268
          CHANNELS 3 Zrotation Xrotation Yrotation
          End Site
          {
            OFFSET 0 0 0
          }
        }
      }
      JOINT Torso_RIGMESH
      {
        OFFSET 0 -0.000828813 -0.000380861
        CHANNELS 3 Zrotation Xrotation Yrotation
        End Site
        {
          OFFSET 0 0 0
        }
      }
    }
    JOINT Spine_RIGMESH
    {
      OFFSET 0.330977 -0.11476 -1.05422
      CHANNELS 3 Zrotation Xrotation Yrotation
      End Site
      {
        OFFSET 0 0 0
      }
    }
  }
  JOINT Character1_RightUpLeg
  {
    OFFSET -9.035 -4.63425 1.845
    CHANNELS 3 Zrotation Xrotation Yrotation
    JOINT Character1_RightLeg
    {
      OFFSET -0.919521 -40.345 1.155
      CHANNELS 3 Zrotation Xrotation Yrotation
      JOINT Character1_RightFoot
      {
        OFFSET 1.95452 -45.2655 -4.18888
        CHANNELS 3 Zrotation Xrotation Yrotation
        JOINT Character1_RightToeBase
        {
          OFFSET 1.87056 -6.69517 14.7145
          CHANNELS 3 Zrotation Xrotation Yrotation
          End Site
          {
            OFFSET 0 0 0
          }
        }
        JOINT R_Talus_RIGMESH
        {
          OFFSET 8 -7.75529 4.18888
          CHANNELS 3 Zrotation Xrotation Yrotation
          End Site
          {
            OFFSET 0 0 0
          }
        }
      }
      JOINT R_Tibia_RIGMESH
      {
        OFFSET 0 0 0
        CHANNELS 3 Zrotation Xrotation Yrotation
        End Site
        {
          OFFSET 0 0 0
        }
      }
    }
    JOINT R_Femur_RIGMESH
    {
      OFFSET 0 0 0
      CHANNELS 3 Zrotation Xrotation Yrotation
      End Site
      {
        OFFSET 0 0 0
      }
    }
  }
  JOINT Character1_LeftUpLeg
  {
    OFFSET 9.035 -4.63425 1.845
    CHANNELS 3 Zrotation Xrotation Yrotation
    JOINT Character1_LeftLeg
    {
      OFFSET 0.919521 -40.345 1.155
      CHANNELS 3 Zrotation Xrotation Yrotation
      JOINT Character1_LeftFoot
      {
        OFFSET -1.95452 -45.2655 -4.18888
        CHANNELS 3 Zrotation Xrotation Yrotation
        JOINT Character1_LeftToeBase
        {
          OFFSET -1.87056 -6.69517 14.7145
          CHANNELS 3 Zrotation Xrotation Yrotation
          End Site
          {
            OFFSET 0 0 0
          }
        }
        JOINT L_Talus_RIGMESH
        {
          OFFSET -8 -7.75529 4.18888
          CHANNELS 3 Zrotation Xrotation Yrotation
          End Site
          {
            OFFSET 0 0 0
          }
        }
      }
      JOINT L_Tibia_RIGMESH
      {
        OFFSET 0 0 0
        CHANNELS 3 Zrotation Xrotation Yrotation
        End Site
        {
          OFFSET 0 0 0
        }
      }
    }
    JOINT L_Femur_RIGMESH
    {
      OFFSET 0 0 0
      CHANNELS 3 Zrotation Xrotation Yrotation
      End Site
      {
        OFFSET 0 0 0
      }
    }
  }
  JOINT Pelvis_RIGMESH
  {
    OFFSET 0 0 0
    CHANNELS 3 Zrotation Xrotation Yrotation
    End Site
    {
      OFFSET 0 0 0
    }
  }
}
MOTION
Frames:	10
Frame Time:	0.00833333
-28.9933 88.8267 5.3112 -4.84589 -2.79397 3.73385 3.47873e-016 7.95139e-016 -0 12.7153 39.0202 1.65687 -5.72228 -0.685322 -12.8525 -64.389 12.9634 -7.53008 0.00114405 1.62579e-005 -87.4555 8.92468 -4.57323 14.9811 3.18055e-015 1.59028e-015 6.36111e-015 3.18055e-015 0 3.18055e-015 2.98177e-016 -1.27222e-014 -5.96354e-016 10.0429 4.11005 18.2507 35.1419 -12.4111 4.05482 -0.00361598 0.001062 60.1892 18.9748 7.30892 -11.9965 6.36111e-015 0 -3.18055e-015 -5.56597e-015 -6.36111e-015 -2.38542e-015 1.59028e-015 3.18055e-015 3.18055e-015 1.19271e-015 6.36111e-015 -7.95139e-016 -15.6639 -3.33341 33.519 -15.1378 2.81581 9.19535 1.19271e-015 6.36111e-015 -7.95139e-016 4.10736 12.9552 1.51472 -4.09232 -21.1798 -6.62863 0.0325025 44.3481 -0.0366488 4.61601 -19.2479 -8.76047 0.0666574 -2.27882 0.00131767 1.49089e-016 0 6.36111e-015 5.96354e-016 -3.18055e-015 -7.95139e-016 7.95139e-016 6.36111e-015 1.19271e-015 7.26974 -41.6219 6.79577 -0.0471775 55.2369 -0.012168 -8.37899 2.92305 -16.6336 1.32637 -9.16437 0.19806 -2.98177e-015 1.59028e-015 1.59028e-015 1.98785e-016 -3.18055e-015 -0 7.95139e-016 3.18055e-015 -0 3.47873e-016 7.95139e-016 -0 
-28.7672 88.6346 5.25702 -4.78081 -2.97379 3.86027 7.45443e-017 7.95139e-016 -7.95139e-016 13.1173 39.402 0.54565 -5.16088 -0.679342 -13.4797 -64.3217 12.2616 -7.08293 0.00114368 2.31312e-005 -86.3786 7.13683 -4.03963 16.4506 -3.18055e-015 -3.18055e-015 -0 -3.53113e-031 3.18055e-015 6.36111e-015 -1.98785e-016 0 -1.19271e-015 9.87806 3.89354 18.5289 33.7346 -12.0585 5.12847 -0.00365332 0.000994 62.27 19.099 7.66304 -12.2433 -3.18055e-015 0 -3.18055e-015 -2.78299e-015 -3.18055e-015 -7.95139e-016 0 0 -4.77083e-015 -7.95139e-016 -9.54166e-015 -7.95139e-016 -16.0441 -3.74869 34.867 -15.5861 2.98407 9.54056 -7.95139e-016 -9.54166e-015 -7.95139e-016 4.14227 13.1038 1.20896 -4.36256 -21.3013 -6.66906 0.0281885 44.9115 -0.0439935 4.71752 -19.4562 -8.80308 0.0666578 -2.29449 0.00131768 1.98785e-016 9.93923e-017 -4.77083e-015 2.08724e-015 6.36111e-015 7.95139e-016 3.97569e-016 0 7.95139e-016 8.77234 -42.3027 7.97313 -0.0612448 56.4312 -0.00217584 -8.70424 4.16163 -14.859 2.38913 -10.1289 0.355785 2.08724e-015 -3.18055e-015 3.97569e-016 -3.97569e-016 3.18055e-015 -0 1.76556e-031 6.36111e-015 -1.59028e-015 7.45443e-017 7.95139e-016 -7.95139e-016 
-28.5476 88.4397 5.20013 -4.7143 -3.15837 4.00792 1.04362e-015 0 -0 13.5558 39.7822 -0.59819 -4.59913 -0.684225 -14.1195 -64.252 11.5324 -6.67644 0.00114312 3.07087e-005 -85.1898 5.25754 -3.44891 17.9839 -3.18055e-015 1.59028e-015 -0 -1.59028e-015 -3.18055e-015 -6.36111e-015 -3.97569e-016 0 1.19271e-015 9.72782 3.67952 18.8056 32.297 -11.6747 6.1964 -0.00368808 0.000924866 64.3455 19.2639 8.01278 -12.488 3.18055e-015 -3.18055e-015 -3.18055e-015 -7.95139e-015 3.18055e-015 1.59028e-015 -4.77083e-015 -3.18055e-015 -4.77083e-015 0 0 -0 -16.4218 -4.13971 36.2357 -16.0633 3.15572 9.89648 0 0 -0 4.18235 13.2559 0.898196 -4.6306 -21.4214 -6.71642 0.0241105 45.4854 -0.0513299 4.81221 -19.6738 -8.86273 0.0666581 -2.30975 0.0013177 9.93923e-017 9.93923e-017 -0 -4.96962e-016 0 1.19271e-015 -1.59028e-015 -3.18055e-015 -0 10.3256 -42.9991 9.20391 -0.0770596 57.6576 0.00846053 -9.21986 5.51227 -13.0856 3.59069 -11.2105 0.5342 -2.06902e-032 -3.18055e-015 -3.72721e-016 3.97569e-016 -1.59028e-015 -0 8.82781e-032 3.18055e-015 -1.59028e-015 1.04362e-015 0 -0 
-28.3149 88.2504 5.14866 -4.64827 -3.33322 4.11334 9.44227e-016 0 -0 13.9778 40.1333 -1.71289 -4.03774 -0.667207 -14.7343 -64.1534 10.8521 -6.19875 0.00114255 3.68508e-005 -84.2247 3.48183 -2.9882 19.3885 -3.18055e-015 4.77083e-015 3.18055e-015 0 3.18055e-015 -0 -3.97569e-016 0 -1.59028e-015 9.55453 3.46231 19.0857 30.8805 -11.3444 7.26799 -0.00372047 0.000854158 66.4316 19.3568 8.3689 -12.7395 -3.18055e-015 -6.36111e-015 -0 -5.76476e-015 6.36111e-015 1.59028e-015 1.59028e-015 3.18055e-015 -1.59028e-015 0 0 -7.95139e-016 -16.7432 -4.52684 37.5728 -16.4887 3.3192 10.2315 0 0 -7.95139e-016 4.21696 13.4001 0.59633 -4.9036 -21.5442 -6.7502 0.0201851 46.0383 -0.0591388 4.91954 -19.8726 -8.88898 0.0666585 -2.32582 0.00131771 -1.49089e-016 0 1.59028e-015 3.97569e-016 0 -7.95139e-016 -9.93923e-016 0 -7.95139e-016 11.8949 -43.6198 10.4083 -0.0917915 58.8198 0.0198302 -9.5846 6.68313 -11.3119 4.53092 -12.0575 0.674536 -9.93923e-016 3.18055e-015 1.59028e-015 -1.19271e-015 0 -0 -3.18055e-015 -3.18055e-015 -1.59028e-015 9.44227e-016 0 -0 
-28.0496 88.0752 5.11073 -4.5855 -3.48394 4.11298 -1.73937e-015 7.95139e-016 -7.95139e-016 14.3256 40.4303 -2.73366 -3.47613 -0.595892 -15.2868 -63.9968 10.2959 -5.53808 0.00114228 3.94311e-005 -83.8188 2.02749 -2.83777 20.4712 3.18055e-015 -9.54166e-015 -3.18055e-015 1.59028e-015 -9.54166e-015 -0 -7.95139e-016 -6.36111e-015 -3.18055e-015 9.32072 3.23627 19.374 29.5425 -11.1513 8.35365 -0.00375062 0.000781404 68.544 19.2653 8.7421 -13.0065 -9.54166e-015 -3.18055e-015 6.36111e-015 -1.68967e-015 -3.18055e-015 2.5842e-015 -8.82781e-032 3.18055e-015 1.59028e-015 6.62086e-032 3.18055e-015 -1.19271e-015 -16.9541 -4.93089 38.8266 -16.7807 3.46306 10.5141 6.62086e-032 3.18055e-015 -1.19271e-015 4.23505 13.5249 0.317335 -5.18854 -21.6739 -6.74981 0.0163302 46.5389 -0.0679004 5.05969 -20.0248 -8.83108 0.0666589 -2.34391 0.00131773 2.73329e-016 9.93923e-017 1.59028e-015 -5.96354e-016 -3.18055e-015 3.97569e-016 -1.39149e-015 0 -0 13.4302 -44.0782 11.4952 -0.102466 59.8215 0.0318988 -9.42099 7.37513 -9.5362 4.80331 -12.3183 0.716495 -1.98785e-015 -3.18055e-015 -0 3.97569e-016 -1.59028e-015 -0 3.18055e-015 3.18055e-015 -0 -1.73937e-015 7.95139e-016 -7.95139e-016 
-27.7497 87.9147 5.08735 -4.53262 -3.61213 3.98959 1.44119e-015 0 -0 14.5808 40.6832 -3.67463 -2.9247 -0.447146 -15.7772 -63.7723 9.84446 -4.62525 0.00114246 3.76972e-005 -84.0916 0.998266 -3.21423 21.138 -6.36111e-015 3.18055e-015 -0 3.18055e-015 0 -3.18055e-015 2.38542e-015 -3.18055e-015 -0 9.0268 2.99369 19.6774 28.3046 -11.1122 9.49168 -0.00377881 0.000705479 70.7164 18.8877 9.15557 -13.2957 -0 0 1.59028e-015 7.82715e-016 0 -4.37326e-015 -3.18055e-015 -9.54166e-015 3.18055e-015 -2.38542e-015 0 -9.93923e-016 -17.0235 -5.39803 39.9982 -16.8938 3.56349 10.7299 -2.38542e-015 0 -9.93923e-016 4.23103 13.6325 0.05482 -5.47425 -21.8074 -6.69987 0.0123998 46.9831 -0.0779825 5.23292 -20.1269 -8.68518 0.0666595 -2.36793 0.00131775 -4.47266e-016 -3.97569e-016 -0 -1.98785e-015 3.18055e-015 -0 3.97569e-016 3.18055e-015 3.97569e-016 14.91 -44.3668 12.4361 -0.107688 60.6844 0.0443292 -8.44154 7.32836 -7.75607 4.07272 -11.5899 0.609702 -7.95139e-016 0 -7.95139e-016 -3.97569e-016 1.59028e-015 -0 1.59028e-015 3.18055e-015 -1.59028e-015 1.44119e-015 0 -0 
-27.4247 87.765 5.07457 -4.48725 -3.72371 3.77708 4.96962e-016 7.95139e-016 7.95139e-016 14.7689 40.9027 -4.55589 -2.37817 -0.243712 -16.222 -63.4938 9.46871 -3.53268 0.00114293 3.28458e-005 -84.8542 0.285637 -3.95881 21.5096 -3.18055e-015 -3.18055e-015 -0 -1.59028e-015 6.36111e-015 -3.18055e-015 -0 -3.18055e-015 -0 8.68979 2.73984 19.9915 27.1456 -11.1823 10.6668 -0.00380456 0.000627053 72.9305 18.3091 9.59647 -13.6013 -6.36111e-015 -2.38542e-015 6.36111e-015 1.28216e-014 3.18055e-015 2.5842e-015 5.29669e-031 -9.54166e-015 3.18055e-015 2.88238e-015 3.18055e-015 1.68967e-015 -16.9842 -5.90161 41.1121 -16.8783 3.63375 10.8976 2.88238e-015 3.18055e-015 1.68967e-015 4.21117 13.7274 -0.195184 -5.7609 -21.9439 -6.6145 0.00848656 47.3861 -0.0890558 5.43062 -20.1924 -8.47489 0.0666601 -2.39604 0.00131778 6.4605e-016 -9.93923e-017 4.77083e-015 1.98785e-016 0 -1.19271e-015 -7.95139e-016 -3.18055e-015 3.97569e-016 16.3422 -44.5328 13.2656 -0.109089 61.4441 0.0571298 -6.82852 6.74709 -5.97929 2.63713 -10.1629 0.399066 3.97569e-016 0 -0 3.97569e-016 -3.18055e-015 1.59028e-015 0 3.18055e-015 -0 4.96962e-016 7.95139e-016 7.95139e-016 
-27.0716 87.6276 5.07309 -4.43884 -3.81072 3.48862 -4.96962e-016 0 3.97569e-016 14.8928 41.0675 -5.31826 -1.81283 -0.0219075 -16.6091 -63.1743 9.23008 -2.3597 0.00114351 2.56778e-005 -85.9793 -0.213548 -4.68934 21.7114 3.18055e-015 3.18055e-015 9.54166e-015 -4.77083e-015 6.36111e-015 1.27222e-014 0 0 -1.59028e-015 8.29688 2.4885 20.3042 26.064 -11.3526 11.81 -0.00382707 0.000548419 75.1243 17.697 10.0215 -13.9136 -6.36111e-015 5.56597e-015 -0 -7.15625e-015 -3.18055e-015 1.19271e-015 -6.36111e-015 6.36111e-015 -1.59028e-015 -1.86361e-016 9.54166e-015 -2.73329e-016 -16.8838 -6.35843 42.1498 -16.7964 3.71807 11.0351 -1.86361e-016 9.54166e-015 -2.73329e-016 4.18178 13.8015 -0.414967 -6.0725 -22.0909 -6.51735 0.0048372 47.7457 -0.100532 5.65977 -20.2184 -8.19059 0.0666607 -2.42082 0.0013178 4.47266e-016 -9.93923e-017 -0 5.96354e-016 0 3.97569e-016 -9.93923e-016 6.36111e-015 -0 17.7126 -44.575 13.9821 -0.108023 62.025 0.0705841 -4.91931 6.03176 -4.21703 1.03223 -8.72571 0.164998 -0 0 3.18055e-015 -3.97569e-016 -1.59028e-015 -4.77083e-015 1.59028e-015 -3.18055e-015 1.59028e-015 -4.96962e-016 0 3.97569e-016 
-26.6877 87.5041 5.08363 -4.37639 -3.86516 3.13743 1.2921e-015 0 -1.19271e-015 14.9537 41.158 -5.9014 -1.20635 0.182352 -16.9259 -62.8351 9.19151 -1.20441 0.00114401 1.69978e-005 -87.3396 -0.605124 -5.02429 21.8615 3.18055e-015 3.18055e-015 -6.36111e-015 -3.18055e-015 3.18055e-015 6.36111e-015 1.59028e-015 9.54166e-015 -1.59028e-015 7.83472 2.25328 20.6033 25.0564 -11.6157 12.8517 -0.00384587 0.00047197 77.236 17.2177 10.3876 -14.2224 -0 -1.11319e-014 -0 -1.98785e-015 -6.36111e-015 7.95139e-016 3.97569e-015 -9.54166e-015 1.59028e-015 7.45443e-016 -3.18055e-015 -8.94531e-016 -16.7763 -6.69124 43.0899 -16.7113 3.86054 11.1603 7.45443e-016 -3.18055e-015 -8.94531e-016 4.14901 13.8471 -0.586781 -6.43323 -22.2559 -6.43218 0.0016696 48.0596 -0.111802 5.92697 -20.2016 -7.82279 0.066661 -2.43485 0.00131782 7.20594e-016 0 1.59028e-015 3.37934e-015 -3.18055e-015 -3.97569e-016 5.96354e-016 3.18055e-015 7.95139e-016 19.0088 -44.4919 14.5852 -0.105692 62.3515 0.084838 -3.10183 5.58872 -2.47265 -0.22323 -7.96745 -0.0155438 1.59028e-015 0 -0 3.97569e-016 -3.18055e-015 -1.59028e-015 1.59028e-015 -1.27222e-014 3.18055e-015 1.2921e-015 0 -1.19271e-015 
-26.2731 87.3893 5.10601 -4.29764 -3.87899 2.70753 -4.72114e-016 7.95139e-016 -3.97569e-016 14.9231 41.1687 -6.2709 -0.543462 0.370223 -17.1464 -62.5069 9.40462 -0.0575909 0.00114435 6.35289e-006 -89.006 -0.857159 -4.84363 21.9314 -3.18055e-015 -6.36111e-015 -3.18055e-015 3.18055e-015 3.18055e-015 -6.36111e-015 1.59028e-015 -6.36111e-015 -1.59028e-015 7.28005 2.04212 20.892 24.151 -12.0123 13.7876 -0.000674667 0.000397511 79.2759 16.8963 10.7104 -14.5316 -6.36111e-015 4.37326e-015 -3.18055e-015 7.95139e-015 3.18055e-015 -0 3.97569e-015 1.59028e-014 -3.18055e-015 -0 0 9.93923e-016 -16.6512 -6.89415 43.9197 -16.6036 4.07314 11.2675 -0 0 9.93923e-016 4.10786 13.8602 -0.70309 -6.84706 -22.4598 -6.35418 -0.00117258 48.3479 -0.122754 6.23261 -20.1456 -7.3576 0.066661 -2.43411 0.00131782 4.96962e-017 0 1.59028e-015 1.19271e-015 6.36111e-015 -0 1.78906e-015 0 -0 20.2352 -44.2806 15.0724 -0.101437 62.3909 0.0958877 -1.42715 5.52254 -0.74358 -1.03072 -8.21472 -0.126916 0 0 -0 7.95139e-016 0 -0 -1.59028e-015 -1.27222e-014 3.18055e-015 -4.72114e-016 7.95139e-016 -3.97569e-016 
